<svg width="569" height="317" viewBox="0 0 569 317" fill="none" xmlns="http://www.w3.org/2000/svg">
<path d="M566.406 40.9842C559.062 25.9407 551.72 24.4766 546.588 26.3123C546.588 26.3123 528.233 35.1082 524.556 41.346C524.556 41.346 516.486 44.6458 512.08 50.5166C512.08 50.5166 489.745 60.911 482.225 63.2697C481.511 63.5043 480.928 63.6511 480.515 63.7147C480.515 63.7147 439.038 72.5184 421.791 92.3278C421.791 92.3278 406.372 105.159 403.059 105.159C403.059 105.159 400.493 103.319 400.493 106.628C400.493 106.628 391.689 107.367 388.381 110.659C388.381 110.659 375.895 112.489 370.024 115.06C370.024 115.06 347.265 115.06 339.19 117.991C331.118 120.927 335.159 116.165 333.321 116.527C331.492 116.882 323.042 118.355 320.476 118.355C317.902 118.355 315.7 116.165 312.765 115.794C309.827 115.432 303.224 115.432 300.646 114.691C298.075 113.958 295.516 112.856 294.418 112.856C293.31 112.856 293.684 115.06 292.209 115.793C290.746 116.527 287.436 117.629 286.34 117.629C285.241 117.629 280.461 115.431 277.89 113.958C275.324 112.489 273.12 111.032 270.92 110.294C268.716 109.556 266.512 108.451 264.308 108.09C262.109 107.723 258.809 107.366 258.809 107.366L247.79 95.6147C247.79 95.6147 241.559 92.6793 240.461 91.9589C239.357 91.2157 233.119 86.4549 232.383 85.3547C231.647 84.2497 228.342 81.3195 227.246 78.751C226.138 76.1799 222.47 73.9897 221.741 72.1395C221.002 70.309 220.271 66.2759 218.806 64.0764C217.331 61.8764 214.035 59.31 212.929 57.4821C211.826 55.6443 210.73 53.4443 208.152 51.2396C205.586 49.0448 204.482 46.1119 201.554 45.3714C198.616 44.6458 196.042 44.6458 194.942 44.6458C193.838 44.6458 189.437 44.6458 189.437 44.6458C189.437 44.6458 192.37 34.3733 191.632 32.902C190.9 31.4431 192.744 29.6074 192.744 29.6074C192.744 29.6074 193.104 25.5675 192.37 24.4771C191.631 23.3722 188.696 20.8135 189.798 20.8135C190.9 20.8135 189.437 18.6068 189.437 18.6068C189.437 18.6068 184.292 16.7711 185.388 15.3023C186.501 13.8408 188.328 13.1003 186.129 12.3721C183.933 11.6362 178.788 11.6362 179.884 10.5364C180.992 9.44132 182.46 7.96739 180.256 7.60305C178.057 7.23663 175.853 9.44132 175.493 6.86972C175.114 4.30846 171.077 1.73012 170.716 3.57303C170.349 5.40354 168.511 3.92757 167.413 2.83247C166.307 1.73013 160.808 -0.831132 161.537 0.26862C161.537 0.26862 156.287 0.642783 153.829 0.642783C149.79 0.642783 146.492 1.00455 147.588 1.73065C148.696 2.46916 140.612 4.67589 140.612 4.67589L133.637 4.30896C133.637 4.30896 127.392 5.40407 128.507 6.13224C129.6 6.87023 131.438 5.77047 129.6 6.87022C127.763 7.96791 122.264 6.87022 122.264 6.87022C122.264 6.87022 119.695 7.96791 122.626 9.44131C125.559 10.908 127.036 11.6362 127.036 11.6362H122.263L124.462 13.4718C124.462 13.4718 121.529 12.7411 122.263 13.8408C123 14.9432 123 14.9432 123 14.9432L124.096 16.7716C124.096 16.7716 121.896 17.138 123 18.2378C123.332 18.5727 123.694 18.8615 124.04 19.1127C123.922 19.4042 123.907 20.0125 124.096 21.1686C124.836 25.5676 124.836 25.5676 124.836 25.5676C124.836 25.5676 124.462 37.3165 124.462 38.3992C124.462 39.5088 127.39 41.7083 127.39 42.8106C127.39 43.9083 122.999 57.1136 124.462 58.5777C125.93 60.0469 127.762 59.311 125.93 60.0469C124.095 60.7777 106.11 60.0469 103.543 58.5777C100.975 57.1136 102.437 55.6448 102.437 55.6448C102.437 55.6448 95.0989 52.3404 93.2564 52.712C91.4242 53.081 78.2064 40.6085 73.0667 40.2395C67.9318 39.8752 63.5288 36.947 63.5288 36.947L62.0633 36.2038C62.0633 36.2038 56.9242 33.6374 55.8157 33.2782C54.7077 32.902 49.2081 33.2782 47.3759 32.902C45.5386 32.55 40.0322 32.55 40.0322 32.55C40.0322 32.55 37.8353 35.1087 38.9387 36.2038C38.9387 36.2038 13.6048 33.2782 2.96345 61.8769C2.96345 61.8769 -0.332093 60.7772 0.027411 64.8098C0.389501 68.8548 1.86476 72.1401 1.86476 72.1401C1.86476 72.1401 6.27088 99.6483 28.2901 105.515C28.2901 105.515 33.4277 112.123 34.8952 113.587C36.3699 115.061 37.4686 115.79 38.5647 116.518C39.6629 117.256 60.9558 151.371 66.47 156.87C66.47 156.87 71.6096 168.237 82.6187 160.54C82.6187 160.54 113.093 146.233 115.29 145.133C117.491 144.043 118.596 146.233 118.596 146.233C118.596 146.233 127.403 138.903 127.763 137.063C128.14 135.232 132.541 135.232 133.637 135.232C134.745 135.232 135.466 134.135 136.949 133.768C138.412 133.391 138.412 132.301 140.244 132.666C142.086 133.032 142.086 133.032 142.086 133.032C142.086 133.032 143.915 134.135 145.024 135.232C146.12 136.329 146.12 136.329 146.12 136.329L147.952 138.16L151.619 138.903L153.456 139.269C156.764 141.833 154.934 138.903 156.764 141.833C158.591 144.764 207.435 184.737 232.744 187.675C232.744 187.675 243.398 190.024 245.236 191.708C247.068 193.394 247.068 194.651 249.644 195.753C252.207 196.853 253.687 196.479 253.687 197.579C253.687 198.679 252.579 198.679 254.042 201.614C255.51 204.55 254.776 204.916 255.51 206.011C256.251 207.121 257.35 208.582 257.35 208.582C257.35 208.582 258.448 209.322 258.448 210.42C258.448 211.511 258.818 209.687 258.448 211.511C258.084 213.351 257.717 217.758 257.355 219.588C256.985 221.419 254.781 223.259 254.043 225.088C253.309 226.919 250.74 230.585 250.376 232.43C250.011 234.256 249.272 236.827 248.902 238.298C248.538 239.76 248.174 240.501 248.174 242.693C248.174 244.9 248.538 244.152 247.434 246.726C246.336 249.292 240.832 261.762 240.832 261.762C240.832 261.762 240.47 268.004 240.098 272.032C239.726 276.06 238.261 282.307 238.261 285.605C238.261 288.914 231.286 300.648 244.87 311.642C244.87 311.642 247.799 319.71 267.257 316.046C267.257 316.046 281.944 311.277 290.019 302.484C298.092 293.677 319.38 276.442 327.825 264.339C336.263 252.23 348.01 245.634 350.214 243.432C352.421 241.237 359.4 234.63 360.124 232.795C360.858 230.967 381.055 227.291 380.314 222.527C379.585 217.764 379.585 219.958 378.484 219.958C377.388 219.958 387.655 210.427 390.229 209.329C392.795 208.229 407.116 201.046 401.612 197.228C396.1 193.396 379.593 181.98 373.711 187.696C367.836 193.396 366.744 195.755 362.701 196.119C358.659 196.493 345.819 196.133 343.619 197.228C341.408 198.321 339.211 200.528 338.11 202.728C337.002 204.917 337.002 209.329 337.002 211.517C337.002 213.724 338.11 216.654 337.741 217.764C337.372 218.864 326.363 232.059 323.418 233.895C320.485 235.723 332.966 202.036 329.299 193.396C325.625 184.755 329.671 189.158 335.904 187.313C342.144 185.493 367.112 184.755 375.182 153.947C375.182 153.947 388.397 143.32 401.979 143.32C401.979 143.32 419.23 141.477 420.331 137.08C421.43 132.673 424.003 137.08 424.003 137.08C424.003 137.08 435.751 128.643 437.583 121.672C439.421 114.7 477.238 110.662 491.184 87.1929C491.184 87.1929 508.436 75.828 514.307 73.6212C514.307 73.6212 530.049 71.7881 533.74 67.7509C533.74 67.7509 544.389 64.4584 545.486 62.9844C546.586 61.5203 557.595 57.1208 560.533 57.4851C563.472 57.8459 573.749 56.018 566.406 40.9842ZM121.46 93.2736C118.647 93.2736 116.775 94.8255 114.282 97.6312C111.789 100.428 112.415 101.984 109.925 102.923C107.422 103.859 102.131 107.909 100.255 113.506C98.3851 119.118 87.48 124.094 83.1034 129.395C78.7459 134.684 78.4262 130.336 77.491 129.395C76.564 128.462 68.7698 114.752 57.2304 110.399C57.2304 110.399 51.6237 106.345 50.9921 102.607C50.9921 102.607 79.6728 86.1019 69.3905 63.9927C69.3905 63.9927 77.4904 74.2626 89.037 72.092C89.037 72.092 96.8188 72.4 98.3841 74.2626C99.938 76.1329 100.572 74.2626 100.572 74.2626C100.572 74.2626 124.567 85.7939 133.298 87.6591C133.3 87.6596 124.263 93.2736 121.46 93.2736Z" fill="#C39B44"/>
</svg>
