<svg width="469" height="269" viewBox="0 0 469 269" fill="none" xmlns="http://www.w3.org/2000/svg">
<path d="M-8.74212 174.012C-2.72774 173.344 7.11641 174.385 9.12897 172.546C11.1407 170.708 0.145463 169.016 -6.42332 167.729C-6.42332 167.729 -13.2354 167.409 -14.9035 163.738C-15.8649 161.623 -9.32865 161.864 -9.32865 161.864C-5.47907 162.038 -0.595058 162.309 3.2928 162.733C7.18065 163.156 13.1352 167.088 13.7675 166.226C14.4002 165.364 8.23445 161.72 5.30492 160.894C2.37495 160.069 -5.66783 157.478 -3.73271 155.141C-1.7967 152.805 -0.323134 154.109 3.24 154.072C6.80225 154.035 12.5663 156.721 15.036 157.873C17.5062 159.024 26.4074 168.877 24.551 165.082C22.6955 161.287 12.9495 155.897 12.4532 152.659C11.9569 149.421 14.7306 149.228 17.7772 150.812C20.8233 152.395 26.1271 155.407 28.1375 156.883C30.1478 158.359 34.1101 162.597 35.9677 163.076C37.8254 163.556 38.8599 163.653 40.0664 163.213C41.2733 162.773 45.265 148.902 46.6479 141.296C48.0317 133.69 49.4093 136.029 49.4093 136.029C49.4093 136.029 49.1823 131.219 53.684 128.999C58.1865 126.779 65.1227 122.145 66.8492 116.781C68.5758 111.417 78.6602 94.0625 82.09 91.4967C85.5194 88.9309 88.8568 80.77 93.435 79.0484C98.0137 77.3264 99.4115 78.1319 99.4115 78.1319C99.4115 78.1319 103.225 74.7426 101.775 65.2765C100.325 55.8099 98.2957 52.5517 100.675 44.7926C101.93 40.702 103.305 37.8783 104.644 35.9899C100.694 38.9096 94.4901 42.987 91.1184 43.9638C85.5053 45.5894 72.6551 43.2256 69.3647 35.0611C69.3647 35.0611 63.7543 33.3717 60.4459 23.4254C57.1375 13.479 52.1778 12.7096 49.0745 12.4208C45.9721 12.1316 52.7538 9.81714 54.7074 9.26251C56.3156 8.80605 60.6861 9.48217 64.9159 10.8797C64.6919 10.3647 64.5093 9.83959 64.3984 9.30609C63.4243 4.61112 59.8418 6.18037 58.4624 7.15669C57.083 8.13301 59.7674 2.36708 62.9667 1.62142C66.1659 0.87575 80.3414 -3.0828 85.6615 5.02534C90.9816 13.1335 93.721 4.02128 96.0051 2.67433C99.548 0.584789 105.178 0.680305 108.68 5.24278C112.183 9.80482 116.284 10.2736 116.57 13.7995C116.855 17.3253 116.144 21.0039 116.144 21.0039L117.484 23.093C117.484 23.093 118.958 24.3968 122.98 24.035C127.003 23.6732 139.759 23.7568 147.531 31.2337C155.303 38.7106 161.236 47.4901 158.705 50.9375C158.453 57.6054 158.642 62.1657 156.419 64.2913C154.196 66.417 153.965 68.2371 155.917 70.9975C157.87 73.7579 159.745 76.02 157.255 76.4016C154.765 76.7837 153.71 78.22 153.71 78.22C153.71 78.22 153.46 81.5733 152.041 82.3005C150.624 83.0276 151.351 84.4459 150.622 86.3427C149.893 88.2394 147.763 95.9602 142.439 94.4816C137.116 93.0035 132.923 90.5869 132.923 90.5869C132.923 90.5869 131.35 93.6325 133.322 94.8602C135.294 96.0874 142.699 109.485 148.635 111.635C154.572 113.784 160.871 116.642 160.808 127.871C160.744 139.099 162.946 141.821 166.392 144.352C169.838 146.883 174.336 151.293 174.336 151.293C174.336 151.293 178.035 147.156 181.483 146.373C184.931 145.589 189.47 146.933 191.345 149.195C193.221 151.457 194.675 154.293 195.422 154.179C196.169 154.065 197.894 152.015 201.093 151.269C204.292 150.524 209.732 149.435 209.752 147.902C209.772 146.369 209.585 138.494 214.718 138.726C219.851 138.959 234.294 136.744 236.957 135.826C239.619 134.907 241.477 135.387 241.821 137.629C242.164 139.872 242.164 139.872 242.164 139.872C242.164 139.872 251.09 138.248 260.876 140.572C270.663 142.895 283.246 143.516 287.289 141.621C291.33 139.727 294.779 138.943 298.073 140.477C301.366 142.012 305.521 144.18 305.521 144.18C305.521 144.18 311.709 142.976 318.354 144.762C324.999 146.548 352.902 153.997 357.9 155.016C362.898 156.034 372.606 161.174 375.651 162.748C378.695 164.32 382.947 165.453 384.881 166.431C386.814 167.41 392.214 169.386 394.11 170.115C396.006 170.845 398.496 170.463 398.496 170.463C398.496 170.463 390.065 140.394 416.657 127.647C443.249 114.901 462.012 127.577 467.536 148.657C473.06 169.737 462.496 188.95 443.513 193.136C431.751 196.215 423.345 192.914 423.345 192.914L417.041 196.686C417.041 196.686 418.897 200.48 414.607 199.099L411.206 200.191C411.206 200.191 410.812 204.27 407.442 202.237C402.589 203.828 394.877 203.399 390.747 189.754C383.739 187.259 358.764 183.95 354.34 183.353C349.916 182.757 338.309 183.517 334.785 183.802C331.26 184.088 316.114 176.722 313.624 177.104C311.134 177.485 306.786 177.387 301.482 174.376C296.178 171.365 279.149 174.996 270.106 179.187C261.064 183.378 246.312 190.23 246.312 190.23C246.312 190.23 252.975 195.459 252.865 203.059C252.755 210.659 250.539 234.456 253.603 237.811C257.01 240.093 260.419 242.375 263.082 241.456C265.744 240.538 270.608 242.342 274.112 243.589C277.617 244.837 290.2 245.457 293.857 247.701C297.515 249.945 302.833 261.367 294.25 265.234C285.667 269.099 268.256 270.239 259.677 267.475C251.098 264.712 241.159 261.391 235.338 259.989C229.516 258.587 227.718 253.508 229.063 245.653C226.779 239.375 216.643 226.141 214.746 228.726C212.848 231.312 208.651 235.525 208.651 235.525C208.651 235.525 212.92 238.44 210.756 239.282C208.591 240.124 199.703 241.997 198.189 243.759C196.675 245.521 184.339 248.177 176.161 246.372C167.984 244.566 166.528 245.045 163.522 243.721C160.515 242.397 156.991 242.682 155.499 239.597C154.006 236.511 145.351 233.249 143.266 227.959C141.181 222.669 143.197 214.201 143.197 214.201C143.197 214.201 141.709 211.625 140.157 209.568C138.604 207.511 134.889 206.551 134.889 206.551C134.889 206.551 116.053 186.748 111.176 173.217C106.299 159.687 98.609 142.763 90.6023 143.736C82.5956 144.709 80.7744 147.793 76.6938 149.439C72.6133 151.085 69.8738 151.504 69.8738 151.504C69.8738 151.504 64.1595 164.109 59.3314 165.869C54.5041 167.63 55.4998 167.477 55.4998 167.477C55.4998 167.477 55.3071 169.546 53.3716 171.883C51.4356 174.219 50.9938 176.327 50.6286 178.933C50.263 181.538 46.068 182.437 41.7001 183.871C37.3322 185.306 34.6099 190.823 28.6171 186.642C22.6243 182.462 16.8008 184.375 13.8528 181.767C10.9044 179.16 9.00886 178.43 9.00886 178.43C9.00886 178.43 -7.42608 180.95 -11.9449 178.074C-16.4615 175.195 -14.7565 174.679 -8.74212 174.012Z" fill="#2C9E8B"/>
</svg>
