<svg width="389" height="479" viewBox="0 0 389 479" fill="none" xmlns="http://www.w3.org/2000/svg">
<path d="M275.895 413.306C264.847 410.362 252.475 412.904 243.556 419.692C242.206 420.72 240.937 421.842 239.766 423.051C232.12 430.944 228.943 442.055 231.299 452.497C234.736 467.726 249.146 478.922 266.202 479C268.248 478.912 270.544 478.782 272.821 478.348C279.65 477.046 285.616 474.161 290.583 469.572C297.37 463.303 301.073 455.677 301.433 446.669C301.581 442.978 301.107 439.361 299.99 435.818C296.735 425.488 287.864 416.877 276.923 413.597C276.582 413.494 276.239 413.397 275.895 413.306ZM388.389 431.908C386.83 429.372 380.346 429.192 378.148 429.036C373.824 428.728 369.471 428.925 365.174 429.441C360.621 429.988 356.013 430.472 351.426 430.012C348.213 429.69 345.291 428.45 342.161 427.867C339.536 427.378 336.416 427.547 334.355 425.661C333.401 424.787 332.861 423.594 332.384 422.423C329.462 415.259 328.334 407.572 326.226 400.179C324.872 395.434 323.605 390.665 321.999 385.989C319.923 379.941 318.311 373.774 316.628 367.624C316.463 367.021 316.481 366.475 316.657 365.862C317.204 363.959 317.604 361.633 317.395 359.66C316.99 355.829 315.048 352.269 314.442 348.444C313.8 344.392 313.283 340.25 311.152 336.601C309.01 332.933 306.116 329.723 304.368 325.844C302.199 321.032 300.3 316.094 298.537 311.137C297.142 307.216 295.468 303.41 293.45 299.739C293.338 299.535 293.238 299.325 293.146 299.142C293.665 297.902 293.655 297.904 293.338 296.566C292.864 294.567 292.175 292.637 291.265 290.78C289.965 288.127 288.596 285.508 287.071 282.961C286.105 281.347 285.206 279.695 284.313 278.043C283.464 276.473 282.678 274.874 281.837 273.3C280.318 270.455 278.921 267.553 277.644 264.603C275.562 259.792 274.298 255.662 274.624 250.394C274.851 246.744 275.488 243.119 275.509 239.457C275.53 235.757 275.172 232.208 275.906 228.517C276.149 227.289 276.238 226.033 276.368 224.787C276.595 222.614 276.555 220.43 276.63 218.25C276.887 210.726 277.903 203.476 278.915 196.021C279.353 192.798 279.167 189.548 279.683 186.327C280.225 182.94 281.178 179.628 282.006 176.297C285.366 162.786 281.661 149.242 277.314 136.384C275.673 131.53 274.47 126.339 274.122 121.171C273.943 118.507 273.981 115.83 274.253 113.172C274.52 110.563 275.366 107.941 275.071 105.31C274.895 103.743 274.703 102.178 274.369 100.628C274.075 99.2643 273.945 97.8783 273.976 96.477C274.004 95.2172 274.205 93.9832 274.427 92.7482C275.458 87.0194 276.215 79.9037 270.787 75.8618C265.976 72.2802 268.119 64.1212 268.162 59.2123C268.17 58.3305 268.167 57.4487 268.16 56.5669C268.151 55.3603 268.134 54.1541 268.122 52.9475C268.09 49.5888 266.978 46.1156 268.057 42.8127C268.747 40.6995 270.08 38.8305 271.054 36.8383C273.04 32.7786 273.739 28.3305 274.931 24.0382C275.656 21.4277 276.402 18.7353 277.843 16.3812C280.918 11.3587 288.285 13.3679 291.791 8.79478C292.333 8.08717 292.582 7.12264 292.209 6.32358C292.132 6.15898 292.028 5.98785 292.063 5.81106C292.097 5.64167 292.249 5.5193 292.392 5.41175C293.062 4.90793 295.216 3.82017 295.137 2.94099C295.058 2.05267 293.497 1.6551 292.747 1.65641C291.838 1.65815 289.844 2.78074 289.336 1.93161C288.766 0.980149 287.401 -0.0631947 286.2 0.00299403C285.312 0.0517647 284.533 0.559502 283.683 0.804661C283.251 0.929201 282.8 0.986245 282.369 1.11296C281.958 1.23402 281.571 1.41691 281.185 1.59936C279.225 2.52644 276.863 3.20923 275.64 5.03595C275.063 5.89815 274.484 6.76165 273.963 7.6552C271.12 12.5379 267.458 16.9225 264.026 21.4368C262.102 23.9668 259.933 26.4785 258.404 29.2445C256.771 32.199 255.769 35.414 254.461 38.4983C253.774 40.1169 252.998 41.7123 252.563 43.4071C252.113 45.1624 252.061 46.9953 251.553 48.7379C251.079 50.3678 249.993 51.7495 249.141 53.237C247.731 55.6991 246.402 58.4037 245.353 61.0969C244.8 62.5156 244.31 63.9561 243.879 65.4127C243.185 67.7589 243.341 68.5802 240.474 68.8384C237.11 69.1411 233.858 70.0825 230.567 70.7557C226.905 71.5042 223.118 71.3662 219.467 72.15C217.674 72.5354 216.542 73.6145 217.211 75.3946C217.704 76.7066 219.601 78.1275 219.841 79.3598C220.087 80.6231 216.913 80.7794 216.173 81.0511C215.315 81.3659 214.533 82.2499 214.9 83.0468C215.486 84.3227 216.253 84.4703 214.768 85.649C211.681 88.0993 212.701 92.8575 214.158 95.8364C215.717 99.0209 217.537 102.124 219.789 104.923C222.254 107.987 225.477 110.62 228.125 113.573C228.319 113.788 228.516 114.011 228.605 114.281C229.082 115.74 226.299 119.723 225.316 120.862C224.505 121.749 219.63 118.259 217.96 119.448C217.587 119.714 217.299 120.072 216.937 120.351C216.21 120.91 215.251 121.099 214.347 121.336C210.223 122.417 207.285 125.093 204.007 127.522C201.158 129.633 198.218 131.649 195.085 133.369C192.062 135.029 189.222 136.813 187.234 139.616C187.125 139.77 186.999 139.915 186.87 140.054C186.284 140.689 185.773 141.38 185.459 142.163C185.242 142.707 184.837 142.951 184.321 143.156C182.601 143.838 180.875 144.51 179.18 145.244C176.455 146.424 173.765 147.673 171.246 149.222C168.93 150.648 166.813 152.302 164.883 154.169C164.123 154.905 163.492 155.731 162.974 156.634C162.547 157.378 162.45 158.118 162.996 158.857C163.073 158.962 163.101 159.1 163.165 159.257C162.982 159.365 162.828 159.476 162.657 159.556C161.374 160.153 160.183 160.889 159.014 161.662C158.29 162.141 157.556 162.607 156.821 163.073C155.148 164.134 153.449 165.159 151.803 166.255C148.095 168.723 144.721 171.563 141.518 174.589C140.474 175.576 139.468 176.592 138.643 177.755C138.562 177.87 138.481 177.985 138.436 178.048C137.543 177.964 136.768 177.858 135.989 177.826C129.481 177.563 122.742 179.324 117.02 182.172C111.186 185.076 104.631 186.4 98.8211 189.354C97.1007 190.229 95.5659 191.162 93.6116 191.416C91.409 191.703 89.1756 191.704 86.9665 191.932C79.4668 192.71 73.5476 196.379 66.9626 199.471C65.03 200.378 63.0281 201.154 61.06 201.994C60.749 202.126 60.4389 202.269 60.1514 202.441C59.8796 202.603 59.7845 203.078 59.9792 203.318C60.7448 204.262 61.4444 204.598 62.7014 204.619C63.9631 204.64 65.2141 204.367 66.4079 204.002C67.4342 203.688 68.4342 203.304 69.4526 202.97C70.1937 202.727 71.6815 202.029 72.448 202.421C72.2712 202.331 67.7106 210.189 67.2782 210.914C66.9377 211.486 66.7401 212.308 67.6437 212.448C67.879 212.485 68.1407 212.5 68.3668 212.441C69.2316 212.219 69.9916 211.846 70.6118 211.189C71.8241 209.904 72.969 208.575 73.9865 207.147C74.1651 206.896 74.2629 206.538 74.6736 206.49C74.8374 206.769 74.7156 207.034 74.6298 207.295C74.0456 209.067 73.574 210.867 73.1471 212.677C73.0516 213.082 72.9787 213.497 72.9524 213.91C72.9081 214.603 73.262 214.905 74.0294 214.893C74.3294 214.888 74.6039 214.827 74.8744 214.691C75.4549 214.398 75.9168 214.003 76.2389 213.459C76.7197 212.648 77.1554 211.822 77.4701 210.936C77.7493 210.15 78.0829 209.381 78.4096 208.565C79.8318 208.467 80.0095 208.553 79.7271 209.97C79.6334 210.441 79.5891 210.96 79.8554 211.368C80.5656 212.456 82.5439 211.028 83.0372 210.369C83.6638 209.532 83.9578 208.521 84.3081 207.55C84.9306 205.826 85.7492 204.77 87.6034 204.2C92.0242 202.839 96.6005 200.82 101.234 200.274C105.555 199.763 109.616 199.658 113.827 198.333C116.042 197.628 118.87 198.11 121.221 197.923C124.156 197.688 127.077 197.299 129.966 196.757C136.087 195.61 142.066 193.783 147.733 191.316C153.63 188.75 159.051 185.331 164.941 182.701C169.114 180.838 173.319 179.037 177.516 177.221C178.951 176.6 178.656 176.471 179.962 177.47C180.113 177.587 180.287 177.678 180.449 177.783C181.207 178.274 182.03 178.244 182.849 177.997C183.217 177.886 183.544 177.658 183.889 177.481C184.318 177.26 184.733 177.009 185.177 176.819C186.877 176.092 188.597 175.406 190.29 174.666C194.257 172.93 198.272 171.306 202.407 169.954C202.863 169.805 203.329 169.683 203.811 169.542C205.022 171.409 206.39 173.102 207.793 174.773C208.647 175.79 209.189 177.209 209.752 178.39C210.387 179.722 210.941 181.093 211.292 182.517C212.336 186.759 211.582 191.148 212.264 195.427C212.911 199.494 215.793 202.726 214.628 207.014C214.42 207.778 214.101 208.538 213.523 209.107C213.064 209.559 212.469 209.864 211.965 210.272C210.556 211.412 209.741 213.287 208.605 214.667C207.218 216.352 206.145 218.247 204.739 219.92C201.796 223.423 198.021 225.825 197.051 230.49C196.896 231.238 196.81 232.005 196.517 232.715C195.532 235.095 194.89 236.399 192.542 237.756C188.778 239.932 185.882 243.264 182.526 245.902C179.139 248.566 175.098 250.638 171.537 253.112C163.842 258.458 155.027 265.073 151.42 273.642C151.288 273.957 151.154 274.274 150.96 274.56C150.703 274.938 150.35 275.247 150.001 275.552C144.225 280.599 138.035 285.431 132.663 290.864C132.35 291.181 132.049 291.184 131.598 291.003C131.249 290.863 131.07 290.59 130.882 290.325C129.967 289.036 128.795 287.98 127.509 287.037C124.619 284.921 121.489 283.195 118.053 281.987C117.224 281.696 116.372 281.485 115.487 281.386C114.363 281.26 113.277 280.999 112.235 280.554C111.477 280.23 110.686 279.964 109.89 279.734C107.074 278.924 104.249 278.144 101.43 277.345C96.5419 275.959 91.6153 274.708 86.6574 273.566C80.9168 272.245 73.849 271.31 68.8633 268.162C68.6049 267.999 68.341 267.815 68.2145 267.547C68.1328 267.375 68.1167 267.181 68.1015 266.992C67.9132 264.643 67.4065 262.347 67.275 259.988C67.1296 257.376 67.1656 254.753 66.8172 252.155C66.6852 251.168 66.479 250.132 65.8818 249.29C65.2468 248.396 64.3659 247.894 64.0452 246.775C63.8412 246.064 63.5934 243.888 62.1966 244.579C61.6899 244.829 61.4255 245.356 61.1057 245.804C60.9945 245.959 60.8496 246.121 60.6516 246.137C60.2114 246.171 60.1306 245.575 60.0009 245.176C59.8343 244.664 59.2843 244.288 58.7167 244.297C58.1495 244.306 57.6138 244.701 57.4666 245.218C57.1486 244.552 56.5524 243.756 55.8132 243.975C55.1911 244.159 54.6807 245.318 53.9179 244.686C53.5903 244.414 53.4371 243.987 53.0938 243.733C52.6526 243.406 51.9373 243.484 51.5866 243.897C51.247 244.296 51.0859 245.009 50.5451 244.964C49.9992 244.919 49.9761 244.173 49.6665 243.746C49.2848 243.22 48.397 243.245 47.8612 243.633C47.3254 244.021 47.0596 244.648 46.8349 245.249C46.6319 244.494 45.7772 243.951 44.9595 244.056C44.1723 244.157 43.6684 244.797 43.4349 245.456C42.9554 244.994 42.2715 244.637 41.5576 244.788C40.8022 244.947 40.2138 245.641 40.2143 246.372C39.9291 245.684 39.1008 245.238 38.3278 245.356C37.5553 245.475 36.919 246.146 36.8798 246.883C36.0519 245.731 33.7778 246.117 33.4262 247.468C33.4525 246.699 32.6892 245.989 31.8743 246.024C31.0593 246.06 30.369 246.833 30.47 247.597C30.1447 247.255 29.8037 246.903 29.3542 246.725C28.9048 246.548 28.3141 246.6 28.0234 246.969C27.65 247.443 27.6099 248.414 27.0031 248.27C26.6348 248.182 26.5873 247.715 26.3847 247.412C25.5532 246.167 23.9911 247.724 23.6289 248.493C23.5315 247.856 22.9731 247.305 22.3026 247.184C21.6321 247.062 20.8979 247.381 20.5578 247.939C20.1776 247.159 18.8213 247.062 18.3206 247.78C18.1864 247.972 18.0798 248.225 17.8416 248.277C17.5634 248.338 17.3359 248.085 17.101 247.932C16.5537 247.574 15.8121 247.742 15.1748 247.923C13.371 248.435 11.5671 248.947 9.76326 249.459C7.84173 250.004 5.58056 250.905 5.31015 252.781C5.40475 252.193 4.48551 251.854 3.94883 252.168C3.41261 252.482 3.21187 253.114 3.05912 253.692C2.34109 256.407 -0.0779028 258.41 0.00193037 261.46C0.0526913 263.382 0.9387 264.834 2.7984 265.706C4.08357 266.309 5.43382 266.75 6.84959 266.935C8.69775 267.176 10.5565 267.365 12.4167 267.498C15.4065 267.712 18.4 267.893 21.3949 268.026C28.0275 268.322 34.548 271.701 40.4658 274.309C52.0942 279.433 61.4125 287.078 71.5873 294.299C76.0649 297.476 80.6043 300.577 85.2107 303.587C86.7916 304.62 88.6329 305.507 90.1017 306.665C91.4667 307.742 92.5599 309.133 93.948 310.216C97.3342 312.859 101.145 314.626 105.402 315.497C109.791 316.396 114.233 317.573 117.968 320.015C119.235 320.843 120.431 321.838 121.843 322.448C123.349 323.097 125.103 323.188 126.716 323.507C129.619 324.08 132.47 323.908 135.297 323.069C143.074 320.763 150.456 316.396 157.578 312.716C165.269 308.741 172.838 304.56 180.277 300.175C181.516 299.445 182.419 299.562 183.524 300.47C185.841 302.375 188.35 304.073 191.004 305.535C191.889 306.022 192.853 306.497 193.876 306.443C196.111 306.325 198.952 303.822 200.795 302.731C206.432 299.395 212.217 296.331 218.109 293.419C218.268 293.341 218.439 293.26 218.617 293.28C218.803 293.302 218.952 293.429 219.088 293.55C223.629 297.62 226.805 302.282 230.436 307.035C232.887 310.243 236.4 312.659 240.744 312.629C242.964 312.614 243.651 314.153 244.981 315.63C249.942 321.14 255.557 326.113 261.58 330.575C266.334 334.097 271.551 337.057 276.445 340.403C280.796 343.377 282.414 347.4 283.754 352.188C284.334 354.262 284.899 356.155 284.614 358.324C284.306 360.659 283.423 362.889 283.047 365.214C282.52 368.474 283.07 371.883 284.6 374.849C286.276 378.095 286.733 381.389 287.674 384.871C288.684 388.608 289.891 392.296 291.288 395.92C294.457 404.14 298.59 412.275 303.633 419.613C305.104 421.754 306.582 423.891 308.017 426.054C309.191 427.823 310.351 429.602 311.436 431.42C313.114 434.229 314.12 437.276 314.874 440.379C313.468 443.347 315.581 446.783 316.532 449.641C317.932 453.849 319.523 458.119 320.655 462.393C321.081 463.513 321.558 464.762 322.297 465.732C322.911 466.539 323.834 467.194 324.883 467.278C325.092 467.294 325.308 467.289 325.502 467.364C326.314 467.678 326.45 468.871 327.188 469.322C328.617 470.195 328.622 468.578 328.407 467.654C328.271 467.068 328.617 466.204 329.221 466.394C330.044 466.654 330.735 469.322 332.042 467.15C332.376 466.595 332.409 465.893 332.342 465.28C332.601 465.113 332.945 465.117 333.178 465.356C333.777 465.969 333.718 466.514 334.688 466.127C335.387 465.849 335.698 464.824 335.434 464.207C336 464.558 336.599 464.92 337.274 464.971C337.95 465.023 338.714 464.645 338.817 464.013C338.93 463.322 338.405 462.316 339.108 462.098C339.585 461.95 339.967 462.47 340.412 462.689C341.063 463.01 341.904 462.616 342.283 462.022C342.696 461.374 342.483 460.595 342.873 459.972C343.737 459.88 344.312 461.131 345.163 460.963C346.312 460.736 345.51 458.748 346.455 458.091C347.087 457.651 348.875 460.026 349.593 458.571C349.766 458.219 349.643 457.807 349.65 457.419C349.657 457.031 349.937 456.565 350.342 456.632C350.668 456.687 350.818 457.043 351.082 457.231C351.699 457.67 352.542 457.043 352.935 456.414C353.327 455.786 353.788 454.997 354.561 455.018C355.285 455.038 356.011 455.804 356.605 455.412C357.138 455.06 356.833 454.157 357.322 453.752C358.159 453.057 359.381 454.873 360.371 454.389C361.288 453.94 360.686 452.106 361.707 451.948C362.39 451.841 362.857 452.769 363.55 452.729C364.66 452.666 364.338 450.531 365.44 450.385C366.025 450.308 366.514 450.927 367.102 450.879C368.159 450.792 367.855 449.073 368.697 448.466C369.199 448.103 369.909 448.275 370.531 448.384C371.152 448.494 371.957 448.433 372.191 447.878C372.356 447.491 372.229 446.905 372.646 446.765C372.967 446.657 373.272 446.964 373.607 447.021C374.526 447.177 374.676 445.654 375.529 445.296C376.139 445.04 376.854 445.49 377.504 445.347C378.259 445.181 378.424 444.456 378.881 443.981C379.459 443.38 379.936 443.137 380.737 442.821C384.351 441.4 391.054 436.246 388.389 431.908Z" fill="#9F574F"/>
</svg>
