<svg width="404" height="439" viewBox="0 0 404 439" fill="none" xmlns="http://www.w3.org/2000/svg">
<path d="M328.073 438.869C321.486 438.395 316.507 437.433 314.896 436.322C312.686 434.799 310.808 433.07 309.771 431.604C309.135 430.706 308.109 429.405 307.491 428.715C306.873 428.024 306.004 426.667 305.561 425.7C304.635 423.679 303.426 420.277 303.426 419.693C303.426 419.393 303.163 419.294 302.357 419.292C301.77 419.289 301.12 419.181 300.914 419.051C300.221 418.614 298.648 419.925 298.648 420.939C298.648 421.238 298.375 421.777 298.042 422.136C297.708 422.495 297.357 423.144 297.262 423.577C297.118 424.23 296.997 424.34 296.548 424.22C296.251 424.14 295.864 424.073 295.689 424.071C295.514 424.069 295.181 423.672 294.95 423.189C294.6 422.454 294.398 422.31 293.724 422.31C292.931 422.31 292.912 422.337 292.641 423.879C292.301 425.813 291.934 426.123 290.097 426.025C288.735 425.953 288.713 425.939 288.634 425.127C288.588 424.649 288.351 424.175 288.068 423.999C287.801 423.832 287.582 423.553 287.582 423.379C287.582 423.147 286.95 423.063 285.212 423.063C283.055 423.063 282.776 423.119 282.099 423.687C281.69 424.031 280.899 425.076 280.339 426.011C279.78 426.945 278.881 428.296 278.342 429.013C277.803 429.73 277.217 430.754 277.04 431.288C276.857 431.843 276.407 432.469 275.99 432.748C275.48 433.088 275.26 433.444 275.259 433.927C275.259 434.565 275.182 434.617 274.253 434.617C273.357 434.617 273.247 434.551 273.247 434.012C273.247 433.281 272.123 432.271 270.838 431.848C270.222 431.645 269.175 431.603 267.61 431.721C265.345 431.89 265.288 431.91 265.017 432.628C264.782 433.25 264.603 433.361 263.842 433.361C263.068 433.361 262.924 433.267 262.793 432.671C262.529 431.464 262.458 431.352 261.968 431.352C261.284 431.352 260.875 430.752 261.06 430.018C261.155 429.639 261.068 429.156 260.841 428.801C260.634 428.477 260.122 426.967 259.703 425.446L258.942 422.679L259.282 419.292C259.651 415.622 260.117 413.305 260.878 411.365C261.713 409.233 262.034 406.034 261.68 403.365C261.395 401.208 261.408 400.975 261.867 400.06C262.187 399.423 262.564 397.568 262.935 394.805C263.407 391.293 263.48 389.933 263.345 387.144C263.255 385.279 263.031 383.245 262.848 382.623C262.661 381.987 262.492 380.009 262.462 378.102C262.417 375.226 262.317 374.463 261.804 373.078C261.365 371.894 260.92 369.309 260.181 363.659C259.621 359.377 258.714 353.047 258.166 349.593C256.829 341.168 256.542 337.287 256.531 327.489C256.516 313.804 256.594 311.951 257.279 309.78C258.16 306.983 260.172 298.784 260.318 297.395C260.387 296.731 260.659 295.496 260.923 294.651C261.186 293.806 261.342 293.018 261.269 292.9C261.196 292.783 259.985 292.11 258.578 291.406C257.171 290.703 255.114 289.476 254.007 288.68C250.559 286.2 245.343 283.135 241.936 281.585C240.137 280.768 238.545 279.998 238.397 279.876C238.231 279.739 237.359 279.985 236.133 280.514C234.377 281.272 233.815 281.697 231.42 284.086C227.942 287.555 224.513 291.952 220.824 297.672L217.897 302.209L215.204 304.198C213.722 305.293 211.209 306.963 209.618 307.911C208.028 308.859 203.462 311.994 199.472 314.878C195.482 317.762 191.068 320.811 189.664 321.652C188.259 322.493 185.603 324.296 183.761 325.659C181.407 327.402 179.914 328.316 178.731 328.738C177.199 329.285 176.82 329.58 174.459 332.056C173.034 333.551 171.167 335.599 170.31 336.608C166.103 341.555 159.831 345.127 150.189 348.064C148.092 348.703 138.822 353.084 137.291 354.16C136.627 354.627 130.626 356.249 129.562 356.249C128.833 356.249 127.216 357.19 126.586 357.979C125.352 359.525 112.027 365.884 102.858 369.303C99.9537 370.385 95.8795 371.948 93.8046 372.774C91.7298 373.601 89.1268 374.523 88.0202 374.823C86.9136 375.123 84.579 375.881 82.8321 376.507C80.3529 377.396 79.3299 377.91 78.1699 378.847C77.3525 379.508 76.2919 380.129 75.8131 380.228C74.1414 380.573 67.6924 382.677 65.7139 383.523C64.617 383.992 63.0192 384.554 62.1633 384.772C60.3701 385.229 57.9965 386.549 54.9486 388.784C53.7728 389.646 51.3187 391.184 49.4949 392.202C46.0644 394.116 43.2169 396.243 42.2828 397.59C41.987 398.017 40.4435 399.405 38.8528 400.675C34.3707 404.253 26.1338 411.719 24.8211 413.393C24.1711 414.222 22.2242 416.585 20.4946 418.645C18.7651 420.706 16.9268 422.91 16.4095 423.543L15.4691 424.696L15.4666 428.138L15.4641 431.58L14.5479 431.752C13.3734 431.972 8.53076 431.668 7.53324 431.312C7.0421 431.136 6.61633 430.714 6.33879 430.128C6.1016 429.627 5.97244 429.443 6.05176 429.719C6.13106 429.996 6.2159 430.335 6.24023 430.473C6.29179 430.766 3.87428 430.948 2.74171 430.736C2.12916 430.622 1.90958 430.409 1.70072 429.73C1.42 428.816 1.4947 428.589 2.07581 428.589C2.27389 428.589 2.77287 428.229 3.18463 427.789C3.77959 427.152 3.9782 427.061 4.1521 427.342C4.53538 427.961 4.61265 427.499 4.35863 426.107C4.18787 425.171 4.19471 424.673 4.38085 424.487C4.79102 424.077 4.70225 423.85 4.18494 423.985C3.9293 424.052 3.3162 423.938 2.82249 423.732C1.98083 423.381 1.91361 423.267 1.74476 421.918C1.58008 420.601 1.61401 420.441 2.142 420.043L2.71932 419.608L1.7983 419.276C1.29145 419.093 0.876993 418.822 0.876993 418.673C0.876993 418.524 0.647509 418.206 0.367025 417.966C-0.0338845 417.623 -0.0877199 417.427 0.115271 417.048C0.257273 416.783 0.571645 416.504 0.813852 416.427C1.17867 416.312 1.23933 416.048 1.16736 414.891C1.07192 413.356 1.77859 410.015 2.22939 409.871C2.38467 409.821 3.15108 409.655 3.93251 409.502C5.48736 409.197 5.72539 408.899 6.04323 406.862C6.12945 406.309 6.41501 405.179 6.67781 404.35C6.94061 403.521 7.26846 402.037 7.40635 401.052C7.54425 400.067 7.77257 398.957 7.91372 398.587C8.05487 398.216 8.17036 396.528 8.17036 394.835V391.758L6.82361 391.201L5.47684 390.643L5.30734 388.025C5.13931 385.429 5.2469 384.292 5.71694 383.695C6.18428 383.102 6.36081 380.303 5.99647 379.263C5.80889 378.728 5.65541 377.894 5.65541 377.41C5.65541 376.543 5.66899 376.531 6.54079 376.673C8.07554 376.921 9.8361 375.82 10.3158 374.31C10.4006 374.043 10.5925 373.9 10.7423 373.993C10.8964 374.088 10.9427 374.045 10.8488 373.893C10.7577 373.746 10.8817 373.277 11.1244 372.851C11.494 372.202 11.9437 371.951 13.8963 371.299L16.227 370.522L20.1837 370.944C22.3598 371.175 24.7628 371.44 25.5236 371.531C26.2843 371.622 28.5478 371.689 30.5535 371.679C33.5866 371.664 34.4949 371.567 35.9522 371.105C36.9158 370.799 38.4842 370.439 39.4376 370.304C40.6508 370.132 41.6721 369.777 42.8412 369.122C43.7599 368.607 44.5964 368.213 44.7001 368.246C44.8038 368.279 44.8887 368.178 44.8887 368.022C44.8887 367.835 45.2342 367.784 45.8947 367.872C46.4479 367.946 46.9639 367.905 47.0412 367.78C47.1186 367.655 47.3467 367.552 47.5481 367.552C47.7495 367.552 49.1402 366.761 50.6385 365.794C52.1368 364.827 53.4932 364.036 53.6526 364.036C53.8121 364.036 53.9426 363.87 53.9426 363.667C53.9426 363.259 57.5661 360.706 57.8052 360.944C57.8874 361.026 58.0258 360.909 58.1127 360.682C58.1996 360.456 58.3612 360.327 58.4718 360.395C58.7849 360.589 64.047 357.027 63.8703 356.742C63.7841 356.602 63.8141 356.519 63.9369 356.557C64.0598 356.595 64.5333 356.255 64.989 355.802C65.4448 355.348 66.2282 354.806 66.7299 354.597C67.2317 354.387 67.8701 354.003 68.1486 353.743C68.8791 353.062 73.135 350.152 75.1939 348.927C79.5544 346.332 87.4983 339.313 89.3653 336.406C89.5871 336.061 89.9128 335.688 90.089 335.577C90.2652 335.467 90.4094 335.226 90.4094 335.043C90.4094 334.86 90.6009 334.554 90.8349 334.365C91.2013 334.068 91.2336 334.072 91.0678 334.397C90.8965 334.732 90.9121 334.732 91.2081 334.397C92.0442 333.451 94.7483 331.318 96.0936 330.543C96.9095 330.073 98.539 329.135 99.7147 328.457C102.611 326.787 108.111 324.234 112.604 322.474C114.644 321.674 116.313 320.925 116.313 320.809C116.313 320.693 116.502 320.67 116.732 320.758C117.029 320.872 117.093 320.826 116.952 320.598C116.803 320.357 116.895 320.322 117.319 320.456C117.705 320.579 117.831 320.547 117.713 320.358C117.619 320.205 117.642 320.08 117.765 320.08C117.888 320.08 118.131 319.814 118.306 319.488C118.562 319.009 118.794 318.911 119.529 318.969C120.027 319.009 120.817 318.882 121.283 318.687C121.75 318.492 122.209 318.344 122.304 318.357C122.829 318.431 123.112 318.287 122.952 318.028C122.831 317.832 122.905 317.785 123.172 317.888C123.393 317.973 123.611 317.931 123.656 317.796C123.781 317.422 125.794 316.801 126.28 316.987C126.547 317.09 126.646 317.052 126.543 316.886C126.259 316.426 127.81 315.947 128.528 316.274C129.083 316.527 129.198 316.482 129.585 315.858C129.973 315.234 130.139 315.168 131.117 315.253C131.721 315.306 132.549 315.552 132.957 315.8C133.594 316.187 133.858 316.211 134.809 315.968C136.587 315.513 138.199 314.013 142.991 308.353C145.469 305.425 147.61 302.961 147.748 302.875C147.886 302.79 148.805 301.342 149.79 299.657C150.774 297.973 152.48 295.091 153.581 293.253C155.356 290.288 155.628 289.666 155.996 287.727C156.371 285.75 156.634 285.165 158.764 281.567C160.058 279.38 161.688 276.329 162.385 274.785C164.562 269.965 165.302 268.642 169.499 262.057C171.745 258.534 174.533 254.081 175.693 252.16C178.142 248.109 180.011 245.891 181.808 244.903C183.856 243.778 183.857 243.776 183.242 241.818C182.592 239.751 182.593 239.928 183.233 238.525C183.69 237.521 183.766 236.811 183.824 232.95C183.886 228.842 183.936 228.426 184.52 227.143C185.014 226.059 185.185 225.167 185.316 222.999C185.508 219.797 186.064 216.941 187.326 212.673C187.821 211 188.349 208.796 188.5 207.775C188.651 206.754 188.998 205.229 189.271 204.386C189.625 203.289 189.79 201.967 189.849 199.739C189.926 196.824 189.992 196.473 190.88 194.239C192.278 190.721 192.563 190.251 194.384 188.462C195.298 187.564 196.59 186.151 197.254 185.322C197.919 184.493 198.878 183.532 199.386 183.187C199.894 182.842 200.31 182.44 200.311 182.294C200.311 182.149 200.709 181.646 201.193 181.178C201.677 180.709 202.073 180.414 202.073 180.523C202.073 180.631 202.422 180.427 202.847 180.07C203.273 179.712 203.704 179.419 203.806 179.419C203.907 179.419 204.264 179.165 204.598 178.854C204.932 178.543 205.264 178.346 205.337 178.415C205.409 178.484 205.552 177.704 205.654 176.683C205.877 174.45 206.994 172.213 208.891 170.204C209.567 169.487 210.121 168.95 210.121 169.011C210.121 169.072 210.539 168.898 211.049 168.625C211.559 168.352 212.804 167.883 213.815 167.584C215.527 167.076 216.048 166.631 215.398 166.23C215.258 166.143 215.2 165.979 215.271 165.865C215.341 165.752 215.126 165.041 214.792 164.287C214.458 163.533 214.062 162.257 213.913 161.451C213.521 159.332 213.58 153.402 214.03 149.774C214.373 147.012 214.375 146.526 214.049 145.637C213.846 145.084 213.606 144.235 213.514 143.752C213.423 143.268 213.112 142.082 212.823 141.115C212.533 140.147 212.273 139.237 212.244 139.091C211.886 137.283 211.014 133.773 210.874 133.579C210.494 133.051 210.26 129.878 210.253 125.165C210.25 122.471 210.158 120.201 210.05 120.121C209.607 119.794 206.568 120.465 204.087 121.438C202.634 122.007 198.896 123.3 195.782 124.31C192.668 125.32 188.933 126.7 187.483 127.377C186.032 128.054 183.408 129.025 181.651 129.536C176.735 130.965 172.865 133.302 171.739 135.521C171.39 136.208 169.799 138.624 168.203 140.889C165.807 144.289 165.328 145.118 165.458 145.636C165.624 146.295 165.392 146.451 164.931 145.991C164.735 145.796 164.18 146.19 162.958 147.392C162.023 148.313 160.677 149.503 159.967 150.038C157.916 151.586 157.583 152.183 157.572 154.339C157.56 156.582 157.638 157.567 157.827 157.567C158.14 157.567 157.567 160.559 156.941 162.19C156.458 163.449 155.831 164.421 154.654 165.735L153.032 167.545V172.009V176.473L151.163 178.794C150.135 180.07 148.615 181.878 147.785 182.812L146.276 184.51L143.865 184.462C142.54 184.435 140.96 184.487 140.355 184.578L139.255 184.743L138.96 186.241C138.77 187.204 138.727 188.659 138.837 190.314C139.061 193.653 138.784 194.298 136.938 194.741C135.993 194.967 135.58 194.973 135.326 194.762C135.049 194.532 134.849 194.866 134.275 196.512C133.141 199.765 131.49 200.369 129.021 198.431C128.879 198.319 128.403 198.016 127.965 197.756C127.062 197.222 127.183 197.864 126.474 189.843C126.242 187.218 125.863 184.167 125.632 183.061C125.273 181.345 125.256 180.795 125.519 179.294C125.688 178.327 125.959 176.01 126.121 174.145C126.464 170.196 126.744 169.457 128.776 167.137C130.94 164.664 131.007 164.531 130.539 163.627C129.776 162.153 130.092 159.85 131.81 154.351C132.484 152.193 132.708 151.011 132.745 149.422C132.789 147.544 132.893 147.138 133.765 145.421C134.299 144.37 134.832 143.569 134.949 143.641C135.175 143.782 135.329 143.226 135.507 141.617C135.683 140.031 137.574 136.301 139.064 134.6C140.56 132.893 142.817 129.689 142.53 129.68C142.427 129.677 142.626 129.441 142.972 129.156C143.318 128.871 143.431 128.726 143.223 128.833C142.888 129.007 142.888 128.976 143.223 128.558C143.431 128.299 143.827 127.848 144.103 127.554C145.422 126.156 147.766 123.384 149.081 121.667C149.882 120.62 151.523 118.732 152.728 117.47C153.932 116.209 155.42 114.585 156.033 113.862C156.716 113.057 157.582 112.363 158.267 112.069C159.595 111.5 161.388 110.138 161.202 109.838C161.13 109.721 161.205 109.544 161.366 109.444C161.561 109.324 161.598 109.381 161.477 109.615C161.376 109.81 161.455 109.772 161.652 109.533C161.848 109.293 162.076 109.163 162.157 109.244C162.238 109.325 162.849 108.899 163.515 108.298C164.181 107.696 165.067 106.967 165.483 106.676C166.427 106.018 170.327 104.317 170.891 104.317C171.121 104.317 171.971 103.843 172.781 103.264C173.591 102.685 174.804 101.91 175.476 101.543C176.25 101.12 176.855 100.562 177.126 100.021C177.48 99.3117 178.068 98.9097 180.607 97.64C182.286 96.7999 184.146 95.6979 184.739 95.191C185.331 94.6842 185.905 94.2695 186.013 94.2695C186.121 94.2695 186.821 93.4501 187.569 92.4485C189.171 90.3041 192.542 87.0251 195.536 84.6982C198.073 82.7274 202.385 79.9089 204.037 79.142C204.686 78.8409 205.256 78.5014 205.303 78.3876C205.471 77.9843 207.41 77.1567 207.819 77.3136C208.179 77.4515 212.468 77.0913 214.068 76.7888C214.371 76.7315 215.547 76.0646 216.68 75.3069C218.685 73.9667 221.372 72.5479 221.753 72.6283C221.857 72.6502 221.941 72.5484 221.941 72.4021C221.941 72.2558 222.055 72.206 222.193 72.2914C222.331 72.3767 222.444 72.3148 222.444 72.1537C222.444 71.9926 222.614 71.9259 222.822 72.0054C223.029 72.085 223.199 72.044 223.199 71.9146C223.199 71.7851 223.387 71.7514 223.617 71.8396C223.875 71.9384 223.974 71.8994 223.874 71.7382C223.778 71.5831 224.075 71.4175 224.602 71.3321C225.091 71.2527 226.421 70.564 227.557 69.8015C230.579 67.7722 232.679 67.1565 237.016 67.0284C240.356 66.9297 240.515 66.9 241.831 66.13C242.58 65.692 243.363 65.1928 243.57 65.0207C244.186 64.5096 247.29 63.3745 248.071 63.3745C248.49 63.3745 249.346 62.996 250.101 62.4773C251.796 61.313 253.317 60.8688 255.622 60.8654L257.488 60.8629L259.181 59.2303C260.112 58.3323 261.074 57.5976 261.319 57.5976C261.563 57.5976 262.531 57.951 263.469 58.3829L265.175 59.1682L266.098 58.624C268.756 57.0578 271.364 54.0994 274.753 48.8063C275.771 47.2176 277.019 45.4091 277.527 44.7875C279.254 42.6746 279.654 41.3887 279.91 37.1265C280.139 33.3365 280.434 31.5644 281.286 28.8763C281.687 27.6117 282.149 25.8423 282.314 24.9443C282.66 23.0488 283.807 20.7836 285.698 18.2619C286.434 17.2805 287.43 15.6981 287.912 14.7454C289.356 11.8903 293.529 6.35705 294.237 6.35705C294.386 6.35705 294.929 6.0704 295.445 5.72004C295.962 5.36969 296.384 5.20014 296.384 5.34327C296.384 5.4864 296.544 5.60351 296.74 5.60351C296.936 5.60351 297.139 5.72941 297.19 5.88329C297.244 6.04572 297.623 5.8781 298.092 5.4836C298.537 5.10989 299.467 4.65496 300.159 4.47264C301.333 4.16326 301.44 4.17439 301.766 4.6396C302.193 5.24821 302.498 4.87054 302.28 4.00303C302.056 3.11045 302.876 2.7437 304.722 2.91091C305.93 3.02031 306.296 2.95667 306.818 2.54702C307.165 2.27395 307.45 1.89602 307.45 1.70717C307.45 1.49169 307.801 1.33475 308.393 1.28583C309.234 1.21627 309.335 1.13448 309.327 0.526743C309.318 -0.108073 309.348 -0.127136 309.761 0.24634C310.005 0.466739 310.144 0.744987 310.07 0.864674C309.996 0.984358 310.112 1.08228 310.327 1.08228C310.81 1.08228 310.813 1.31423 310.338 1.9408C309.924 2.4883 310.264 3.15426 310.844 2.93172C311.031 2.86014 311.305 3.02851 311.454 3.30587C311.603 3.58324 311.976 3.84632 312.284 3.89051C312.592 3.93469 312.963 4.20898 313.107 4.50004C313.328 4.94434 313.471 4.98919 313.994 4.77963C314.337 4.64235 315.05 4.50036 315.578 4.46409C316.315 4.4135 316.507 4.47999 316.403 4.74965C316.314 4.98189 316.447 5.10115 316.795 5.10115C317.242 5.10115 317.299 5.2111 317.175 5.83278C316.997 6.72036 317.551 7.3464 318.107 6.88583C318.297 6.72838 318.625 6.66573 318.836 6.7466C319.047 6.82748 319.295 6.77107 319.388 6.62125C319.481 6.47143 319.663 6.41442 319.792 6.49455C319.922 6.57469 320.213 6.45623 320.438 6.23132C321.052 5.61842 321.347 6.08227 321.516 7.92692C321.526 8.03053 321.885 8.1153 322.315 8.1153C322.94 8.1153 323.064 8.19876 322.936 8.53297C322.833 8.8008 323.023 9.20845 323.465 9.66932C324.097 10.3282 324.129 10.4543 323.853 11.1853C323.522 12.0622 323.828 12.5196 324.552 12.2282C325.339 11.9112 326.637 11.6758 326.946 11.7941C327.123 11.8618 327.343 11.7954 327.435 11.6462C327.539 11.4775 327.888 11.6597 328.357 12.1286C328.772 12.5431 329.05 12.9818 328.975 13.1037C328.739 13.4847 329.736 14.3948 330.389 14.3948C330.732 14.3948 331.217 14.6208 331.468 14.8971C331.966 15.4473 332.723 15.5586 332.993 15.1215C333.224 14.748 333.596 15.3406 333.602 16.0902C333.604 16.4011 333.719 16.6554 333.857 16.6554C333.995 16.6554 334.108 16.8249 334.108 17.0322C334.108 17.2394 334.278 17.4089 334.486 17.4089C334.693 17.4089 334.863 17.522 334.863 17.6601C334.863 17.8925 334.522 17.9955 334.239 17.8485C333.997 17.7227 333.155 19.6911 333.267 20.1199C333.331 20.3625 333.212 20.8893 333.004 21.2906C332.409 22.4352 332.85 22.8447 334.835 22.9926C335.026 23.0069 335.238 23.2267 335.305 23.4811C335.42 23.9226 335.464 23.9198 336.276 23.4188C337.106 22.9067 337.428 23.0355 336.825 23.6382C336.605 23.8576 336.598 24.0148 336.8 24.2162C336.983 24.3992 337.001 24.7547 336.854 25.2671C336.732 25.6929 336.658 26.0548 336.69 26.0712C337.491 26.4796 338.132 27.0517 338.132 27.3584C338.132 28.5828 335.019 34.1106 333.833 34.9915C333.74 35.0605 333.528 35.7766 333.361 36.5828C333.194 37.389 332.775 38.8584 332.428 39.8481C332.082 40.8379 331.706 42.5041 331.592 43.5508C331.219 46.9761 331.077 47.2549 328.893 48.8597C327.819 49.6489 326.356 50.959 325.641 51.7709C324.533 53.0295 324.296 53.4846 324.032 54.8573C323.679 56.7004 322.853 58.3115 321.565 59.6732C320.879 60.3981 320.597 60.9836 320.354 62.185C319.956 64.1506 319.193 64.8754 317.51 64.8872L316.378 64.8948L315.599 66.8944C314.833 68.8614 314.828 68.9061 315.269 69.6305C315.758 70.4344 317.604 71.8927 319.773 73.1884C321.441 74.1853 323.75 76.114 325.056 77.6016C325.402 77.9964 326.212 78.6767 326.855 79.1133C327.497 79.55 328.515 80.5564 329.117 81.3499C329.718 82.1434 330.576 83.2555 331.023 83.8214C333.366 86.7894 334.168 88.0736 334.601 89.5496C334.855 90.4186 335.513 92.074 336.062 93.2283C337.131 95.4736 337.15 95.8334 336.303 97.8275C335.894 98.7905 335.997 99.882 336.602 101.012C336.823 101.424 336.84 101.794 336.662 102.306C336.39 103.083 336.751 103.44 337.513 103.148C337.986 102.967 338.798 103.667 339.353 104.736C339.581 105.175 340.672 106.238 341.779 107.1C342.886 107.962 344.367 109.186 345.07 109.82C347.536 112.043 347.823 112.278 348.884 112.945C349.472 113.314 349.959 113.53 349.967 113.425C349.997 113.012 350.931 115.528 350.945 116.059C350.952 116.37 351.109 116.624 351.292 116.624C351.829 116.624 352.719 117.734 352.719 118.403C352.719 118.914 352.931 119.093 353.965 119.46C355.492 120.002 357.343 121.373 357.443 122.037C357.664 123.506 357.687 123.531 358.88 123.563C360.233 123.601 361.018 124.186 361.018 125.156C361.018 125.951 361.838 126.613 363.659 127.291C364.351 127.548 365.337 128.021 365.851 128.343C366.668 128.854 366.806 129.084 366.951 130.181C367.099 131.295 367.205 131.466 367.904 131.718C368.386 131.892 369.028 132.49 369.557 133.257C370.711 134.929 371.391 135.333 373.082 135.354C373.847 135.364 375.322 135.502 376.36 135.661C377.397 135.82 379.046 135.953 380.024 135.957C382.473 135.968 384.142 136.527 386.464 138.116C388.837 139.739 389.272 140.185 391.381 143.167C393.037 145.509 393.844 146.171 396.963 147.748C399.517 149.039 400.449 149.82 400.76 150.93C401.007 151.809 401.247 152.085 402.184 152.567C404.156 153.58 404.307 154.156 403.649 158.168C403.444 159.417 403.102 160.601 402.872 160.854C402.155 161.646 400.755 164.669 400.755 165.426C400.755 166.387 398.832 170.055 398.066 170.557C397.736 170.773 396.366 171.26 395.023 171.64C393.68 172.019 392.263 172.455 391.873 172.609C390.887 172.998 389.092 172.958 387.711 172.515C387.07 172.309 386.122 172.078 385.604 172.001C384.848 171.889 384.627 171.728 384.48 171.182C384.165 170.011 384.276 168.027 384.707 167.104L385.122 166.218L382.439 164.216C380.962 163.115 378.68 161.655 377.366 160.971C374.699 159.584 374.761 159.593 365.294 159.089C358.238 158.713 354.734 157.596 344.134 152.344C337.366 148.991 337.18 148.879 337.012 148.05C336.902 147.51 336.1 146.321 334.82 144.8C333.709 143.481 332.115 141.377 331.276 140.125C328.27 135.636 324.037 130.418 322.832 129.717C322.209 129.354 320.81 128.25 319.723 127.262C317.973 125.672 317.458 125.36 315.224 124.541C313.837 124.032 312.55 123.673 312.364 123.744C311.459 124.091 306.227 139.536 305.056 145.315C304.29 149.1 304.04 149.869 302.527 153.101C298.278 162.177 297.701 163.915 296.247 172.009C294.655 180.871 292.409 189.187 290.107 194.741C287.952 199.94 283.472 208.755 279.976 214.676C277.477 218.907 277.468 218.918 272.542 223.923C268.266 228.268 267.651 228.99 267.915 229.357C268.083 229.59 268.353 230.063 268.516 230.408C268.678 230.754 269.29 231.545 269.875 232.167C271.015 233.38 273.105 236.305 274.72 238.949C275.268 239.846 276.066 240.913 276.493 241.319C276.921 241.725 277.27 242.194 277.27 242.361C277.27 242.529 277.666 243.254 278.151 243.972C278.76 244.876 279.031 245.563 279.031 246.202C279.031 246.737 279.393 247.881 279.891 248.919C281.261 251.775 285.998 259.018 287.653 260.788C289.179 262.421 291.31 265.494 292.365 267.583C292.678 268.205 293.467 269.504 294.118 270.471C295.744 272.89 295.808 273.032 296.277 275.273C296.819 277.869 296.659 279.818 295.516 284.538C294.144 290.201 293.428 292.38 292.238 294.5C291.51 295.797 291.241 296.507 291.413 296.678C292.158 297.422 291.803 300.66 290.826 302.029C290.552 302.414 290.17 303.552 289.976 304.559C288.408 312.71 288.47 312.114 288.968 314.225C289.377 315.957 289.395 316.555 289.145 320.064C288.932 323.061 288.942 325.174 289.189 329.122C289.402 332.516 289.438 335.127 289.294 336.783C289.174 338.164 289.036 339.889 288.987 340.615C288.712 344.65 287.871 348.99 286.203 354.985C285.993 355.741 285.818 357.04 285.813 357.874C285.809 358.707 285.585 360.632 285.316 362.152C285.047 363.672 284.645 367.062 284.421 369.687C284.114 373.29 283.888 374.75 283.496 375.643C283.025 376.72 283.004 376.985 283.268 378.58C283.427 379.544 283.558 381.743 283.558 383.466V386.599L285.344 391.703C286.465 394.909 287.393 397.138 287.837 397.699C288.226 398.189 288.624 399.013 288.721 399.53C288.855 400.241 289.237 400.771 290.302 401.718C291.074 402.406 291.827 402.969 291.974 402.969C292.121 402.969 293.768 402.631 295.633 402.219C299.423 401.382 301.924 401.241 302.42 401.838C302.88 402.392 303.144 402.301 303.334 401.524C303.669 400.157 305.246 396.282 306.068 394.805C307.873 391.564 309.364 389.775 312.148 387.516C313.644 386.301 314.987 385.164 315.132 384.991C315.277 384.818 315.916 384.412 316.551 384.089C317.187 383.766 318.483 383.051 319.432 382.5C320.38 381.949 321.213 381.492 321.282 381.485C321.351 381.478 322.143 381.226 323.043 380.925C326.036 379.921 331.921 379.2 334.611 379.507C335.803 379.643 339.282 379.853 341.087 379.899C341.399 379.906 341.653 380.011 341.653 380.13C341.653 380.249 341.823 380.282 342.03 380.202C342.238 380.123 342.408 380.17 342.408 380.308C342.408 380.445 342.832 380.637 343.351 380.734C343.87 380.831 344.453 381.041 344.647 381.201C344.841 381.362 345.039 381.464 345.087 381.43C345.339 381.248 345.936 381.403 345.805 381.615C345.717 381.758 345.818 381.8 346.041 381.714C346.256 381.632 346.432 381.661 346.433 381.78C346.433 381.898 347.123 382.278 347.966 382.623C348.809 382.968 349.736 383.493 350.027 383.789C350.317 384.085 350.691 384.275 350.856 384.212C351.022 384.148 351.321 384.329 351.521 384.614C351.721 384.899 351.949 385.066 352.03 384.986C352.11 384.906 352.303 385.08 352.46 385.372C352.616 385.664 352.852 385.836 352.983 385.755C353.115 385.674 353.222 385.727 353.222 385.874C353.222 386.02 353.364 386.14 353.537 386.14C353.711 386.14 354.151 386.456 354.517 386.843C354.882 387.229 355.572 387.813 356.05 388.141C356.528 388.468 357.239 389.24 357.629 389.856C358.02 390.473 358.616 391.305 358.953 391.706C359.648 392.531 361.752 395.951 362.694 397.787C363.039 398.46 363.723 400.495 364.214 402.308C365.065 405.448 365.113 405.847 365.226 410.651C365.358 416.274 365.153 417.663 363.788 420.425C363.378 421.254 362.743 422.78 362.376 423.816C361.559 426.12 361.492 426.224 359.208 428.684C355.847 432.305 352.355 435.623 351.241 436.254C349.369 437.315 345.348 438.346 342.03 438.617C337.214 439.009 331.47 439.113 328.073 438.869ZM5.9069 428.954C5.9069 428.909 5.68839 428.888 5.42133 428.908C5.15427 428.928 4.98814 429.029 5.05215 429.132C5.15839 429.304 5.9069 429.148 5.9069 428.954ZM4.21194 418.898C3.97581 418.404 3.74416 418.114 3.69717 418.255C3.6182 418.492 4.33892 419.798 4.54853 419.798C4.59959 419.798 4.44809 419.393 4.21194 418.898ZM2.37753 418.05C2.61217 417.902 2.86586 417.916 3.0749 418.089C3.32808 418.299 3.36712 418.267 3.24505 417.949C3.15792 417.723 3.01387 417.541 2.92492 417.546C2.63319 417.562 1.49938 418.273 1.75723 418.278C1.89555 418.28 2.17468 418.178 2.37753 418.05ZM201.461 181.366L202.199 180.55L201.382 181.287C200.62 181.975 200.449 182.182 200.643 182.182C200.686 182.182 201.054 181.815 201.461 181.366ZM128.637 199.262C128.637 199.124 128.75 199.011 128.888 199.011C129.027 199.011 129.14 199.124 129.14 199.262C129.14 199.401 129.027 199.514 128.888 199.514C128.75 199.514 128.637 199.401 128.637 199.262Z" fill="#2B8B39"/>
</svg>
