<?xml version="1.0" standalone="no"?>
<!DOCTYPE svg PUBLIC "-//W3C//DTD SVG 20010904//EN"
 "http://www.w3.org/TR/2001/REC-SVG-20010904/DTD/svg10.dtd">
<svg version="1.0" xmlns="http://www.w3.org/2000/svg"
 width="976.000000pt" height="776.000000pt" viewBox="0 0 976.000000 776.000000"
 preserveAspectRatio="xMidYMid meet">

<g transform="translate(0.000000,776.000000) scale(0.100000,-0.100000)"
fill="#000000" stroke="none">
<path d="M0 3880 l0 -3880 4880 0 4880 0 0 3880 0 3880 -4880 0 -4880 0 0
-3880z m2654 3475 c83 -626 429 -1163 981 -1525 196 -128 509 -258 745 -309
322 -69 688 -69 1010 0 336 73 703 252 965 471 433 362 699 844 766 1391 l12
97 1184 0 1183 0 0 -3615 0 -3615 -1180 0 -1180 0 -2 848 -3 847 -557 3 -558
2 -5 23 c-3 12 -9 44 -15 70 -82 385 -412 717 -815 822 -636 166 -1294 -226
-1419 -845 l-13 -65 -556 -3 -557 -2 0 -850 0 -850 -1185 0 -1185 0 0 3615 0
3615 1183 0 1184 0 17 -125z m4186 88 c0 -91 -52 -318 -104 -453 -209 -541
-650 -954 -1216 -1139 -223 -72 -379 -96 -640 -96 -214 1 -330 15 -526 65
-594 153 -1097 597 -1315 1159 -55 142 -109 374 -109 469 l0 32 1955 0 1955 0
0 -37z m-1729 -4851 c292 -77 511 -285 598 -566 11 -37 21 -70 21 -72 0 -2
-380 -4 -845 -4 -465 0 -845 2 -845 4 0 2 10 35 21 72 91 294 326 506 639 575
110 24 299 20 411 -9z m1739 -1637 l0 -705 -1965 0 -1965 0 0 705 0 705 1965
0 1965 0 0 -705z"/>
</g>
</svg>
